<?xml version="1.0" encoding="UTF-8"?>
<svg id="Camada_2" data-name="Camada 2" xmlns="http://www.w3.org/2000/svg" viewBox="0 0 960.47 402.55">
  <defs>
    <style>
      .cls-1 {
        fill: #d0003c;
      }

      .cls-2 {
        fill: #fff;
      }
    </style>
  </defs>
  <g id="Camada_1-2" data-name="Camada 1">
    <g>
      <path class="cls-1" d="M68.55,341.65c0-1.53,1.24-2.77,2.77-2.77h27.16c24.06,0,39.14,14.18,39.14,31.26s-15.08,31.26-39.14,31.26h-27.16c-1.53,0-2.77-1.24-2.77-2.77v-56.97ZM97.71,385.86c10.75,0,17.63-6.66,17.63-15.73s-6.87-15.73-17.63-15.73h-5.32c-1.53,0-2.77,1.24-2.77,2.77v25.91c0,1.53,1.24,2.77,2.77,2.77h5.32Z"/>
      <path class="cls-1" d="M147.78,338.88h15.59c1.51,0,2.74,1.23,2.74,2.74v57.05c0,1.51-1.23,2.74-2.74,2.74h-15.59c-1.51,0-2.74-1.23-2.74-2.74v-57.05c0-1.51,1.23-2.74,2.74-2.74Z"/>
      <path class="cls-1" d="M174.24,392.65l4.55-9.44c.65-1.34,2.25-1.93,3.61-1.3,5.02,2.33,11.08,4.53,20.97,4.53,2.22,0,8.65-.58,8.65-3.86,0-2.99-4.55-3.47-8.65-4.34-13.86-2.7-28.38-7.33-28.38-21.42,0-13.03,13.64-18.91,28.38-18.91,10.52,0,18.52,2.05,25.3,5.14,1.4.64,1.98,2.33,1.29,3.71l-4.65,9.29c-.64,1.29-2.17,1.85-3.5,1.3-4.79-1.97-12.53-3.42-18.45-3.42-1.77,0-6.43.39-6.43,2.89,0,2.22,2.66,3.18,6.43,3.96,10.75,2.03,30.6,5.79,30.6,21.8,0,14.28-15.74,19.97-30.6,19.97-15.83,0-24.08-4.15-27.98-6.32-1.27-.71-1.78-2.27-1.15-3.58Z"/>
      <path class="cls-1" d="M256.03,354.41h-16.99c-1.52,0-2.76-1.23-2.76-2.76v-10.02c0-1.52,1.23-2.76,2.76-2.76h60.56c1.52,0,2.76,1.23,2.76,2.76v10.02c0,1.52-1.23,2.76-2.76,2.76h-16.99c-1.52,0-2.76,1.23-2.76,2.76v41.47c0,1.52-1.23,2.76-2.76,2.76h-15.55c-1.52,0-2.76-1.23-2.76-2.76v-41.47c0-1.52-1.23-2.76-2.76-2.76Z"/>
      <path class="cls-1" d="M308.12,341.6c0-1.51,1.22-2.73,2.73-2.73h28.98c22.06,0,33.37,11.09,33.37,24.7,0,6.51-3.05,13.17-9.15,17.74-1.17.88-1.38,2.55-.52,3.73l8.66,12.03c1.3,1.8.01,4.32-2.21,4.32h-17.21c-.95,0-1.83-.49-2.33-1.3l-6.53-10.67c-.54-.87-1.52-1.37-2.54-1.29-1.28.1-2.27.15-3.55.15h-5.92c-1.51,0-2.73,1.22-2.73,2.73v7.67c0,1.51-1.22,2.73-2.73,2.73h-15.61c-1.51,0-2.73-1.22-2.73-2.73v-57.07ZM340.05,372.74c6.54,0,10.87-4.15,10.87-9.17s-4.44-9.17-10.75-9.17h-8.25c-1.51,0-2.73,1.22-2.73,2.73v12.88c0,1.51,1.22,2.73,2.73,2.73h8.14Z"/>
      <path class="cls-1" d="M383.39,338.88h15.53c1.53,0,2.77,1.24,2.77,2.77v56.99c0,1.53-1.24,2.77-2.77,2.77h-15.53c-1.53,0-2.77-1.24-2.77-2.77v-56.99c0-1.53,1.24-2.77,2.77-2.77Z"/>
      <path class="cls-1" d="M411.33,341.64c0-1.53,1.24-2.77,2.77-2.77h31.94c11.97,0,24.28,3.47,24.28,17.27,0,2.69-1.19,5.86-3.23,8.28-1.14,1.35-.73,3.35.84,4.17,4.94,2.57,8.49,7.2,8.49,13.99,0,13.8-13.53,18.81-28.94,18.81h-33.38c-1.53,0-2.77-1.24-2.77-2.77v-56.98ZM444.15,363.28c4.88,0,6.43-1.64,6.43-4.25,0-2.89-1.55-4.63-6.43-4.63h-8.98c-1.53,0-2.77,1.24-2.77,2.77v3.34c0,1.53,1.24,2.77,2.77,2.77h8.98ZM446.92,385.86c4.1,0,7.54-.68,7.54-4.44s-3.44-4.44-7.54-4.44h-11.76c-1.53,0-2.77,1.24-2.77,2.77v3.34c0,1.53,1.24,2.77,2.77,2.77h11.76Z"/>
      <path class="cls-1" d="M483.39,376.6v-34.97c0-1.52,1.23-2.75,2.75-2.75h15.56c1.52,0,2.75,1.23,2.75,2.75v33.91c0,7.53,4.99,10.42,10.98,10.42s10.98-2.89,10.98-10.42v-33.91c0-1.52,1.23-2.75,2.75-2.75h15.56c1.52,0,2.75,1.23,2.75,2.75v34.97c0,17.17-13.86,25.95-32.04,25.95s-32.04-8.78-32.04-25.95Z"/>
      <path class="cls-1" d="M559.64,338.88h15.58c1.52,0,2.74,1.23,2.74,2.74v57.03c0,1.52-1.23,2.74-2.74,2.74h-15.58c-1.52,0-2.74-1.23-2.74-2.74v-57.03c0-1.52,1.23-2.74,2.74-2.74Z"/>
      <path class="cls-1" d="M587.6,341.63c0-1.52,1.23-2.75,2.75-2.75h27.18c24.06,0,39.14,14.18,39.14,31.26s-15.08,31.26-39.14,31.26h-27.18c-1.52,0-2.75-1.23-2.75-2.75v-57.01ZM616.76,385.86c10.75,0,17.63-6.66,17.63-15.73s-6.87-15.73-17.63-15.73h-5.34c-1.52,0-2.75,1.23-2.75,2.75v25.95c0,1.52,1.23,2.75,2.75,2.75h5.34Z"/>
      <path class="cls-1" d="M661.88,370.14c0-17.85,15.41-32.22,38.47-32.22s38.58,14.38,38.58,32.22-15.52,32.42-38.58,32.42-38.47-14.38-38.47-32.42ZM716.98,370.14c0-9.07-6.87-15.63-16.63-15.63-9.09,0-16.52,6.56-16.52,15.63s6.87,15.82,16.52,15.82,16.63-6.56,16.63-15.82Z"/>
      <path class="cls-1" d="M746.36,341.63c0-1.52,1.23-2.76,2.76-2.76h28.95c22.06,0,33.37,11.09,33.37,24.7,0,6.49-3.03,13.14-9.1,17.71-1.19.9-1.4,2.6-.53,3.81l8.6,11.93c1.31,1.82.01,4.37-2.24,4.37h-17.13c-.96,0-1.85-.5-2.35-1.32l-6.51-10.64c-.54-.88-1.54-1.39-2.57-1.31-1.27.1-2.26.15-3.53.15h-5.89c-1.52,0-2.76,1.23-2.76,2.76v7.61c0,1.52-1.23,2.76-2.76,2.76h-15.55c-1.52,0-2.76-1.23-2.76-2.76v-57.01ZM778.29,372.74c6.54,0,10.87-4.15,10.87-9.17s-4.43-9.17-10.75-9.17h-8.22c-1.52,0-2.76,1.23-2.76,2.76v12.82c0,1.52,1.23,2.76,2.76,2.76h8.11Z"/>
      <path class="cls-1" d="M844.45,338.88h18.23c1.07,0,2.04.62,2.49,1.59l26.49,57.02c.85,1.82-.48,3.9-2.49,3.9h-15.36c-1.11,0-2.12-.67-2.54-1.7l-1.93-4.7c-.42-1.03-1.43-1.7-2.54-1.7h-26.47c-1.11,0-2.12.67-2.54,1.7l-1.93,4.7c-.42,1.03-1.43,1.7-2.54,1.7h-15.36c-2.01,0-3.34-2.08-2.49-3.9l26.49-57.02c.45-.97,1.42-1.59,2.49-1.59ZM858.92,379.2c1.95,0,3.28-1.97,2.55-3.78l-7.01-17.35c-.67-1.54-.78-2.12-.89-2.51,0,0-.22.87-.89,2.51l-7.01,17.35c-.73,1.81.6,3.78,2.55,3.78h10.7Z"/>
    </g>
    <g>
      <path class="cls-2" d="M148.97,109.44c-27.56,0-53.38,7.55-75.52,20.72-6.66,3.96-15.09-.91-15.09-8.66V10.57c0-5.54-4.49-10.03-10.03-10.03H10.03C4.49.54,0,5.03,0,10.57v280.41c0,5.54,4.49,10.03,10.03,10.03h38.3c5.54,0,10.03-4.49,10.03-10.03v-31.19c0-50.51,40.57-91.46,90.62-91.46s90.62,40.94,90.62,91.46v31.19c0,5.54,4.49,10.03,10.03,10.03h38.3c5.54,0,10.03-4.49,10.03-10.03v-31.19c0-83.04-66.7-150.36-148.97-150.35Z"/>
      <path class="cls-2" d="M596.52,102.05h47.98c2.97,0,5.38-2.41,5.38-5.38,0-55.71-66.54-96.67-123.29-96.67-60.03,0-123.29,35.14-123.29,96.67,0,48.44,40.56,67.98,82.51,76.66,17.02,3.52,105.72,10,105.72,31,0,17.21-19.81,41.4-64.94,41.4-42.02,0-64.94-27.61-64.94-41.4v-.38c0-2.76-2.24-5-5-5h-48.36c-2.76,0-5,2.24-5,5v.38c0,55.06,61.7,96.67,123.29,96.67s123.29-37.35,123.29-96.67c0-47.9-41.92-65.86-82.84-73.85-19.3-3.77-105.39-8.74-105.39-33.81,0-17.95,21.35-41.41,64.94-41.41,38.89,0,64.94,28.25,64.94,41.41v.38c0,2.76,2.24,5,5,5Z"/>
      <path class="cls-2" d="M811.5.54c-82.28,0-148.97,67.32-148.98,150.35,0,83.04,66.7,150.36,148.97,150.36,27.58,0,53.41-7.57,75.57-20.75,6.64-3.95,15.05.91,15.05,8.63v2.32c0,5.52,4.48,10,10,10h38.36c5.52,0,10-4.48,10-10v-140.55C960.47,67.86,893.78.54,811.5.54ZM811.5,242.35c-50.04,0-90.62-40.94-90.61-91.46,0-50.51,40.57-91.46,90.62-91.46s90.61,40.95,90.61,91.46-40.57,91.46-90.62,91.46ZM953.44,283.93c0,4.7-3.81,8.51-8.51,8.51h-27.27c-4.7,0-8.51-3.81-8.51-8.51v-16.82c0-4.7,3.81-8.51,8.51-8.51h27.27c4.7,0,8.51,3.81,8.51,8.51v16.82Z"/>
      <path class="cls-2" d="M373.35.54h-36.49c-6.04,0-10.94,4.9-10.94,10.94v278.6c0,6.04,4.9,10.94,10.94,10.94h36.49c6.04,0,10.94-4.9,10.94-10.94V11.48c0-6.04-4.9-10.94-10.94-10.94ZM375.28,32.96c0,4.43-3.59,8.02-8.02,8.02h-24.28c-4.43,0-8.02-3.59-8.02-8.02V15.98c0-4.43,3.59-8.02,8.02-8.02h24.28c4.43,0,8.02,3.59,8.02,8.02v16.98Z"/>
    </g>
  </g>
</svg>